<svg xmlns="http://www.w3.org/2000/svg" viewBox="0 0 1200 630" width="1200" height="630">
  <rect width="1200" height="630" fill="#0f172a" />
  
  <rect x="0" y="0" width="1200" height="4" fill="#66ff66" opacity="0.3" />
  <rect x="0" y="626" width="1200" height="4" fill="#66ff66" opacity="0.3" />
  
  <g transform="translate(100, 315)">
    <path d="M 0 -120 L 100 -60 L 100 60 L 0 120 L -100 60 L -100 -60 Z" 
          fill="none" stroke="#1E293B" stroke-width="6" stroke-linejoin="round" />

    <path d="M -80 -46 A 93 93 0 0 1 80 -46" 
          fill="none" stroke="#0EA5E9" stroke-width="3" />

    <path d="M 80 46 A 93 93 0 0 1 -80 46" 
          fill="none" stroke="#10B981" stroke-width="3" />

    <path d="M -63 0 C -30 -43, 30 -43, 63 0" 
          fill="none" stroke="#F8FAFC" stroke-width="5" stroke-linecap="round" />

    <path d="M -63 0 C -30 43, 30 43, 63 0" 
          fill="none" stroke="#F8FAFC" stroke-width="5" stroke-linecap="round" />

    <circle cx="0" cy="0" r="18" fill="#0EA5E9" />
    <circle cx="0" cy="0" r="8" fill="#0f172a" />
  </g>

  <g transform="translate(380, 200)">
    <text x="0" y="0" fill="#F8FAFC" font-family="system-ui, -apple-system, sans-serif" 
          font-size="72" font-weight="800" letter-spacing="6">eyeVesa</text>

    <text x="0" y="55" fill="#66ff66" font-family="system-ui, -apple-system, sans-serif" 
          font-size="28" font-weight="600" letter-spacing="3">IDENTITY &amp; TRUST LAYER</text>

    <text x="0" y="95" fill="#66ff66" font-family="system-ui, -apple-system, sans-serif" 
          font-size="28" font-weight="600" letter-spacing="3">FOR AI AGENTS</text>

    <text x="0" y="150" fill="#64748B" font-family="system-ui, -apple-system, sans-serif" 
          font-size="18" font-weight="400" letter-spacing="1">
      <tspan x="0" dy="0">Cryptographic identity  |  3-tier OPA policy</tspan>
      <tspan x="0" dy="28">HITL approvals  |  Non-repudiable audit trails</tspan>
    </text>
  </g>

  <g transform="translate(1200, 590)">
    <text x="-20" y="0" fill="#334155" font-family="system-ui, -apple-system, sans-serif" 
          font-size="14" font-weight="400" text-anchor="end">safrplus.dev</text>
  </g>
</svg>
